<?xml version="1.0" encoding="UTF-8" standalone="no"?>
<!-- Created with Inkscape (http://www.inkscape.org/) -->

<svg
   width="150.42548mm"
   height="105.23029mm"
   viewBox="0 0 150.42548 105.23029"
   version="1.1"
   id="svg1"
   xml:space="preserve"
   xmlns:inkscape="http://www.inkscape.org/namespaces/inkscape"
   xmlns:sodipodi="http://sodipodi.sourceforge.net/DTD/sodipodi-0.dtd"
   xmlns="http://www.w3.org/2000/svg"
   xmlns:svg="http://www.w3.org/2000/svg"><sodipodi:namedview
     id="namedview1"
     pagecolor="#868686"
     bordercolor="#000000"
     borderopacity="0.25"
     inkscape:showpageshadow="2"
     inkscape:pageopacity="0.0"
     inkscape:pagecheckerboard="0"
     inkscape:deskcolor="#d1d1d1"
     inkscape:document-units="mm" /><defs
     id="defs1" /><g
     inkscape:label="Layer 1"
     inkscape:groupmode="layer"
     id="layer1"
     transform="translate(-30.940432,-107.94698)"><path
       style="display:inline;fill:#ffffff"
       d="m 81.599846,213.01198 c -0.942726,-0.20451 -1.583728,-0.43547 -2.338445,-0.84256 -2.12944,-1.14861 -3.609375,-2.99457 -4.314609,-5.38174 -0.191543,-0.64836 -0.231149,-0.97034 -0.265577,-2.159 -0.03402,-1.17452 -0.01368,-1.52644 0.12773,-2.20979 0.09251,-0.44703 0.309841,-1.16683 0.482969,-1.59955 l 0.314777,-0.78676 -15.781225,-15.78122 -15.781226,-15.78123 -0.588725,0.26694 c -0.323799,0.14682 -0.951112,0.36366 -1.39403,0.48186 -0.705286,0.18823 -0.978814,0.21519 -2.202306,0.21712 -1.535279,0.002 -2.063977,-0.083 -3.314873,-0.53565 -2.236427,-0.80924 -4.258944,-2.83175 -5.068178,-5.06818 -0.452627,-1.2509 -0.538059,-1.77959 -0.535647,-3.31487 0.0019,-1.23941 0.02756,-1.49229 0.227101,-2.24168 0.270217,-1.01485 0.901776,-2.33923 1.474643,-3.09232 0.517709,-0.68059 1.446132,-1.56287 2.141528,-2.03511 2.400149,-1.62991 5.878243,-1.93623 8.640131,-0.76094 l 0.618911,0.26337 15.787388,-15.78738 15.787387,-15.78739 -0.220912,-0.49344 c -0.121502,-0.2714 -0.323078,-0.83635 -0.447947,-1.25545 -0.194115,-0.65151 -0.232901,-0.96456 -0.267496,-2.159 -0.03398,-1.17336 -0.01367,-1.52576 0.12689,-2.20133 0.367635,-1.76694 1.102033,-3.12467 2.384344,-4.4081 0.444985,-0.44537 1.022055,-0.94819 1.282379,-1.11738 1.704909,-1.10807 3.450706,-1.57367 5.538018,-1.47695 3.300225,0.1529 6.11159,1.98804 7.5382,4.92061 0.997228,2.04992 1.159051,4.73629 0.416769,6.91869 -0.939275,2.76158 -3.211905,4.87525 -6.092303,5.66616 -0.519706,0.1427 -0.992587,0.1952 -2.032,0.22559 -1.129678,0.033 -1.489657,0.0118 -2.167454,-0.12815 -0.447033,-0.0923 -1.16683,-0.30941 -1.599549,-0.48254 l -0.786761,-0.31478 -15.777678,15.77826 -15.777678,15.77826 0.331995,0.84666 c 0.499013,1.27261 0.624429,2.09184 0.576792,3.76767 -0.03375,1.18717 -0.07281,1.50685 -0.260084,2.1284 -0.121205,0.40227 -0.318475,0.95322 -0.438378,1.22435 l -0.218006,0.49295 15.808506,15.80867 15.808505,15.80868 0.387229,-0.19566 c 2.087016,-1.05449 5.313603,-1.06074 7.57769,-0.0147 2.404041,1.11073 4.185486,3.23645 4.839126,5.77431 0.272644,1.05858 0.356367,2.51315 0.20785,3.61109 -0.501972,3.71092 -3.261473,6.68525 -6.903438,7.44088 -1.027911,0.21327 -2.8505,0.20962 -3.852333,-0.008 z m 1.331736,-0.0524 c -0.02813,-0.0281 -0.101159,-0.0311 -0.162278,-0.007 -0.06754,0.027 -0.04748,0.0471 0.05115,0.0512 0.08925,0.004 0.139259,-0.0163 0.111125,-0.0445 z m 1.439333,0 c -0.02813,-0.0281 -0.101159,-0.0311 -0.162278,-0.007 -0.06754,0.027 -0.04748,0.0471 0.05115,0.0512 0.08925,0.004 0.139259,-0.0163 0.111125,-0.0445 z m -9.486565,-8.00806 c -0.02703,-0.0675 -0.04709,-0.0475 -0.05115,0.0511 -0.0037,0.0893 0.01633,0.13926 0.04447,0.11113 0.02813,-0.0281 0.03114,-0.10116 0.0067,-0.16228 z m 17.36019,-0.85044 c -0.01884,-0.15218 -0.03465,-0.0481 -0.03512,0.23132 -4.76e-4,0.2794 0.01494,0.4039 0.03426,0.27668 0.01932,-0.12723 0.01971,-0.35583 8.64e-4,-0.508 z m -17.36019,-0.58889 c -0.02703,-0.0675 -0.04709,-0.0475 -0.05115,0.0512 -0.0037,0.0892 0.01633,0.13926 0.04447,0.11113 0.02813,-0.0281 0.03114,-0.10116 0.0067,-0.16228 z m 8.937996,-7.91937 c -0.151342,-0.0188 -0.398992,-0.0188 -0.550334,0 -0.151341,0.0188 -0.02752,0.0341 0.275167,0.0341 0.302683,0 0.426508,-0.0154 0.275167,-0.0341 z m -43.899667,-26.3285 c -0.08149,-0.0213 -0.214841,-0.0213 -0.296333,0 -0.08149,0.0213 -0.01482,0.0387 0.148167,0.0387 0.162983,0 0.229658,-0.0174 0.148166,-0.0387 z m -8.808951,-8.85182 c -0.02025,-0.10532 -0.03759,-0.0391 -0.03853,0.14718 -9.4e-4,0.18627 0.01563,0.27244 0.03682,0.19149 0.02119,-0.081 0.02196,-0.23335 0.0017,-0.33867 z m 51.817854,-34.91364 c -0.02813,-0.0281 -0.101159,-0.0311 -0.162278,-0.007 -0.06754,0.027 -0.04748,0.0471 0.05115,0.0512 0.08925,0.004 0.139259,-0.0163 0.111125,-0.0445 z m 1.398764,-0.005 c -0.05821,-0.0235 -0.153459,-0.0235 -0.211667,0 -0.05821,0.0235 -0.01058,0.0427 0.105833,0.0427 0.116417,0 0.164042,-0.0192 0.105834,-0.0427 z m -9.445996,-8.00313 c -0.02703,-0.0676 -0.04709,-0.0475 -0.05115,0.0511 -0.0037,0.0893 0.01633,0.13926 0.04447,0.11112 0.02813,-0.0281 0.03114,-0.10116 0.0067,-0.16227 z m 17.36019,-0.85045 c -0.01884,-0.15217 -0.03465,-0.0481 -0.03512,0.23132 -4.76e-4,0.2794 0.01494,0.40391 0.03426,0.27668 0.01932,-0.12722 0.01971,-0.35582 8.64e-4,-0.508 z m -17.36019,-0.58889 c -0.02703,-0.0675 -0.04709,-0.0475 -0.05115,0.0511 -0.0037,0.0893 0.01633,0.13926 0.04447,0.11113 0.02813,-0.0281 0.03114,-0.10116 0.0067,-0.16228 z m 8.937996,-7.91937 c -0.151342,-0.0188 -0.398992,-0.0188 -0.550334,0 -0.151341,0.0188 -0.02752,0.0341 0.275167,0.0341 0.302683,0 0.426508,-0.0154 0.275167,-0.0341 z m 42.989504,104.88302 c -2.02364,-0.43015 -3.91962,-1.63581 -5.17013,-3.28771 -1.24913,-1.65006 -1.85734,-3.71169 -1.74843,-5.9266 0.1927,-3.91906 2.80407,-7.14599 6.56983,-8.1185 1.00813,-0.26035 2.52963,-0.34676 3.59693,-0.20427 0.82508,0.11015 1.91399,0.42618 2.51536,0.73003 l 0.38723,0.19566 15.80851,-15.80868 15.8085,-15.80867 -0.218,-0.49295 c -0.11991,-0.27113 -0.31718,-0.82208 -0.43838,-1.22435 -0.18727,-0.62155 -0.22634,-0.94123 -0.26009,-2.1284 -0.0476,-1.67583 0.0778,-2.49506 0.5768,-3.76767 l 0.33199,-0.84666 -15.77768,-15.77826 -15.77767,-15.77826 -0.75592,0.30244 c -0.90902,0.36369 -1.70477,0.55704 -2.60496,0.63294 l -0.66979,0.0565 -13.33641,40.74583 c -12.68214,38.74686 -13.34607,40.74584 -13.53305,40.74584 -0.159,0 -0.1959,-0.0446 -0.19281,-0.23284 0.002,-0.12806 4.91228,-18.78753 10.91148,-41.4655 l 10.90765,-41.23266 -0.30546,-0.254 c -1.24079,-1.03177 -1.98688,-1.92076 -2.57927,-3.07327 -0.7466,-1.45257 -1.05023,-2.91747 -0.96479,-4.65494 0.16469,-3.34923 2.08613,-6.21286 5.10443,-7.6074 1.89673,-0.87634 4.47582,-1.03465 6.50166,-0.39907 1.44499,0.45334 2.48271,1.09211 3.61453,2.22491 1.28265,1.28376 2.01754,2.64264 2.38392,4.4081 0.13898,0.66971 0.16033,1.03108 0.12758,2.159 -0.0421,1.44809 -0.17727,2.15179 -0.61399,3.1955 -0.12193,0.29141 -0.23915,0.58698 -0.26049,0.65683 -0.0252,0.0826 5.47384,5.63861 15.73696,15.89982 l 15.77576,15.77281 0.61887,-0.26335 c 2.76185,-1.17527 6.23996,-0.86895 8.64009,0.76095 0.6954,0.47224 1.62382,1.35452 2.14153,2.03511 0.57287,0.75309 1.20443,2.07747 1.47464,3.09232 0.19954,0.74939 0.22516,1.00227 0.2271,2.24168 0.002,1.53528 -0.083,2.06397 -0.53564,3.31487 -0.80924,2.23643 -2.83176,4.25894 -5.06818,5.06818 -1.2509,0.45262 -1.7796,0.53806 -3.31488,0.53565 -1.22349,-0.002 -1.49702,-0.0289 -2.2023,-0.21712 -0.44292,-0.1182 -1.07023,-0.33504 -1.39403,-0.48186 l -0.58873,-0.26694 -15.78122,15.78123 -15.78123,15.78122 0.31478,0.78676 c 0.17313,0.43272 0.39046,1.15252 0.48297,1.59955 0.14141,0.68335 0.16175,1.03527 0.12773,2.20979 -0.0344,1.18866 -0.074,1.51064 -0.26558,2.159 -0.97626,3.30457 -3.52116,5.63406 -6.84358,6.26432 -0.93914,0.17815 -2.77871,0.15984 -3.70414,-0.0369 z m 1.33174,-0.0556 c -0.0281,-0.0281 -0.10116,-0.0311 -0.16228,-0.007 -0.0675,0.027 -0.0475,0.0471 0.0512,0.0512 0.0893,0.004 0.13926,-0.0163 0.11113,-0.0445 z m 1.43933,0 c -0.0281,-0.0281 -0.10116,-0.0311 -0.16228,-0.007 -0.0675,0.027 -0.0475,0.0471 0.0512,0.0512 0.0892,0.004 0.13925,-0.0163 0.11112,-0.0445 z m -27.11091,-6.897 c 0.0783,-0.23585 0.12056,-0.45069 0.0938,-0.47741 -0.0557,-0.0557 -0.17358,0.22939 -0.26094,0.63106 -0.0911,0.41862 0.007,0.32851 0.1671,-0.15365 z m 34.98101,-1.11106 c -0.027,-0.0675 -0.0471,-0.0475 -0.0512,0.0511 -0.004,0.0893 0.0163,0.13926 0.0445,0.11113 0.0281,-0.0281 0.0311,-0.10116 0.007,-0.16228 z m -17.35314,-0.85044 c -0.0188,-0.15218 -0.0346,-0.0481 -0.0351,0.23132 -4.7e-4,0.2794 0.0149,0.4039 0.0343,0.27668 0.0193,-0.12723 0.0197,-0.35583 8.7e-4,-0.508 z m 17.35314,-0.58889 c -0.027,-0.0675 -0.0471,-0.0475 -0.0512,0.0512 -0.004,0.0892 0.0163,0.13926 0.0445,0.11113 0.0281,-0.0281 0.0311,-0.10116 0.007,-0.16228 z m -8.41867,-7.91937 c -0.15134,-0.0188 -0.39899,-0.0188 -0.55033,0 -0.15134,0.0188 -0.0275,0.0341 0.27516,0.0341 0.30269,0 0.42651,-0.0154 0.27517,-0.0341 z m 43.64567,-26.32845 c -0.0815,-0.0213 -0.21484,-0.0213 -0.29634,0 -0.0815,0.0213 -0.0148,0.0387 0.14817,0.0387 0.16298,0 0.22966,-0.0174 0.14817,-0.0387 z m 8.54771,-8.85182 c -0.0203,-0.10532 -0.0376,-0.0391 -0.0385,0.14718 -9.4e-4,0.18627 0.0156,0.27244 0.0368,0.19149 0.0212,-0.081 0.022,-0.23335 0.002,-0.33867 z m -51.64481,-34.91364 c -0.0281,-0.0281 -0.10116,-0.0311 -0.16228,-0.007 -0.0675,0.027 -0.0475,0.0471 0.0512,0.0512 0.0892,0.004 0.13925,-0.0163 0.11112,-0.0445 z m 7.8701,-8.00805 c -0.027,-0.0676 -0.0471,-0.0475 -0.0512,0.0511 -0.004,0.0893 0.0163,0.13926 0.0445,0.11112 0.0281,-0.0281 0.0311,-0.10116 0.007,-0.16227 z m -17.35314,-0.85045 c -0.0188,-0.15217 -0.0346,-0.0481 -0.0351,0.23132 -4.7e-4,0.2794 0.0149,0.40391 0.0343,0.27668 0.0193,-0.12722 0.0197,-0.35582 8.7e-4,-0.508 z m 17.35314,-0.58889 c -0.027,-0.0675 -0.0471,-0.0475 -0.0512,0.0511 -0.004,0.0893 0.0163,0.13926 0.0445,0.11113 0.0281,-0.0281 0.0311,-0.10116 0.007,-0.16228 z m -8.41867,-7.91937 c -0.15134,-0.0188 -0.39899,-0.0188 -0.55033,0 -0.15134,0.0188 -0.0275,0.0341 0.27516,0.0341 0.30269,0 0.42651,-0.0154 0.27517,-0.0341 z"
       id="path2" /></g></svg>
